HIERARCHY
ROOT Hips
{
	OFFSET -0.179506 -22.333345 2.821913
	CHANNELS 6 Xposition Yposition Zposition Zrotation Yrotation Xrotation 
	JOINT LeftUpLeg
	{
		OFFSET 6.951974 -9.140623 -0.681533
		CHANNELS 3 Zrotation Yrotation Xrotation
		JOINT LeftLeg
		{
			OFFSET 3.427654 -37.519855 -0.449580
			CHANNELS 3 Zrotation Yrotation Xrotation
			JOINT LeftFoot
			{
				OFFSET -1.359570 -39.796059 -4.369333
				CHANNELS 3 Zrotation Yrotation Xrotation
				JOINT LeftToe
				{
					OFFSET 2.635814 -5.579078 11.928840
					CHANNELS 3 Zrotation Yrotation Xrotation
					End Site
					{
						OFFSET 0.000000 0.000000 0.000000
					}
				}
			}
		}
	}
	JOINT RightUpLeg
	{
		OFFSET -6.767048 -9.052170 -0.431982
		CHANNELS 3 Zrotation Yrotation Xrotation
		JOINT RightLeg
		{
			OFFSET -3.829005 -38.256897 -0.885003
			CHANNELS 3 Zrotation Yrotation Xrotation
			JOINT RightFoot
			{
				OFFSET 1.577377 -39.841461 -4.231180
				CHANNELS 3 Zrotation Yrotation Xrotation
				JOINT RightToe
				{
					OFFSET -2.537174 -4.814398 12.334795
					CHANNELS 3 Zrotation Yrotation Xrotation
					End Site
					{
						OFFSET 0.000000 0.000000 0.000000
					}
				}
			}
		}
	}
	JOINT Spine
	{
		OFFSET -0.253288 10.896323 -2.669631
		CHANNELS 3 Zrotation Yrotation Xrotation
		JOINT Spine1
		{
			OFFSET 0.548704 13.518043 0.109247
			CHANNELS 3 Zrotation Yrotation Xrotation
			JOINT Spine2
			{
				OFFSET 0.145701 5.292222 2.542457
				CHANNELS 3 Zrotation Yrotation Xrotation
				JOINT Neck
				{
					OFFSET -0.277840 21.387037 -4.285703
					CHANNELS 3 Zrotation Yrotation Xrotation
					JOINT Head
					{
						OFFSET 0.515184 6.496960 5.134897
						CHANNELS 3 Zrotation Yrotation Xrotation
						End Site
						{
							OFFSET 0.000000 0.000000 0.000000
						}
					}
				}
				JOINT LeftShoulder
				{
					OFFSET 7.884473 12.174932 -3.408961
					CHANNELS 3 Zrotation Yrotation Xrotation
					JOINT LeftArm
					{
						OFFSET 9.097692 3.046888 -0.886815
						CHANNELS 3 Zrotation Yrotation Xrotation
						JOINT LeftForeArm
						{
							OFFSET 25.961220 -1.277207 -2.745643
							CHANNELS 3 Zrotation Yrotation Xrotation
							JOINT LeftHand
							{
								OFFSET 24.923361 0.898606 -0.117091
								CHANNELS 3 Zrotation Yrotation Xrotation
								End Site
								{
									OFFSET 0.000000 0.000000 0.000000
								}
							}
						}
					}
				}
				JOINT RightShoulder
				{
					OFFSET -8.175920 11.883285 -3.861528
					CHANNELS 3 Zrotation Yrotation Xrotation
					JOINT RightArm
					{
						OFFSET -9.601238 3.255117 -0.914307
						CHANNELS 3 Zrotation Yrotation Xrotation
						JOINT RightForeArm
						{
							OFFSET -25.374195 -1.332924 -2.140099
							CHANNELS 3 Zrotation Yrotation Xrotation
							JOINT RightHand
							{
								OFFSET -25.529810 0.777228 -0.555919
								CHANNELS 3 Zrotation Yrotation Xrotation
								End Site
								{
									OFFSET 0.000000 0.000000 0.000000
								}
							}
						}
					}
				}
			}
		}
	}
}
MOTION
Frames: 7
Frame Time: 0.033333
-14.477606 -23.265905 91.613113 -116.043983 2.647509 87.550306 13.321048 5.125459 -2.249794 -4.687788 -2.154354 17.654781 1.747437 11.449962 -23.716230 nan nan nan -11.833422 -9.815559 -9.692947 2.970005 -10.235083 12.021122 4.691293 -7.239093 -5.976803 nan nan nan -8.487955 1.808157 0.157233 9.213145 -6.363619 14.179243 1.573211 -0.375865 -7.738795 4.093294 -19.919386 17.150513 6.890335 -21.662465 14.201614 -14.207010 -4.308387 5.009598 -63.106901 -43.668378 34.378987 174.212115 -69.754596 -144.601718 5.577125 -19.589474 -8.859479 18.577628 -1.629801 -2.445878 50.361991 8.523375 4.660474 -83.725139 55.002317 -66.257736 -11.634322 6.537176 -22.749735 
-14.488655 -23.275343 91.602692 -116.018622 2.638829 87.569347 13.302580 5.049375 -2.262314 -4.733164 -2.256918 17.666720 1.733704 11.415402 -23.778604 nan nan nan -11.871917 -9.811100 -9.683180 3.021297 -10.218367 11.964833 4.756843 -7.244836 -5.942915 nan nan nan -8.460465 1.805333 0.098371 9.169953 -6.365034 14.168430 1.572721 -0.395955 -7.658267 4.139405 -19.922758 16.954378 6.758181 -21.672209 14.458753 -14.188200 -4.362622 4.993532 -63.064485 -43.644305 34.300058 174.038677 -69.796427 -144.584384 5.537305 -19.760050 -9.160034 18.588335 -1.573998 -2.409505 50.367920 8.553311 4.632616 -83.804796 54.926272 -66.511298 -11.604226 6.648352 -22.933834 
-14.485368 -23.271433 91.596588 -115.998632 2.620757 87.579053 13.315842 4.978296 -2.324786 -4.791713 -2.273957 17.767608 1.749801 11.411554 -23.783817 nan nan nan -11.882229 -9.778000 -9.684672 3.037540 -10.215329 11.897385 4.890657 -7.259919 -5.998052 nan nan nan -8.569619 1.828153 0.148854 9.148656 -6.338189 14.098918 1.579194 -0.294338 -7.637240 3.771803 -19.814782 16.975103 6.999582 -21.796140 14.504100 -13.985180 -4.426407 5.087751 -63.399958 -43.800333 34.534248 173.442494 -69.839466 -144.301338 4.871275 -19.953387 -9.697461 18.694260 -1.695924 -2.406020 50.336166 8.479430 4.564232 -83.894207 54.917338 -66.369523 -11.130836 6.611149 -22.431337 
-14.474382 -23.281273 91.565704 -116.010692 2.651965 87.483142 13.441297 5.043924 -2.383545 -4.931977 -2.220903 18.067972 1.766586 11.425726 -23.736204 nan nan nan -11.841701 -9.786689 -9.628541 3.008865 -10.180949 11.951303 4.765006 -7.312429 -6.222037 nan nan nan -8.775592 1.910074 0.172831 9.269422 -6.372373 14.306799 1.672879 -0.049725 -7.562546 3.931192 -19.931377 16.636978 7.191612 -21.965275 14.396881 -13.716654 -4.654545 5.248604 -63.895037 -44.172075 34.840618 172.790619 -69.841071 -144.045270 4.279809 -19.929879 -10.233945 18.508593 -1.825246 -2.519130 50.393468 8.454084 4.426956 -84.052366 54.981495 -66.317059 -10.760715 6.355760 -22.289362 
-14.466506 -23.266941 91.565788 -116.050969 2.630508 87.461250 13.483672 5.144355 -2.402373 -5.062594 -2.281817 18.169215 1.728994 11.487187 -23.616671 nan nan nan -11.823815 -9.759702 -9.637272 3.047000 -9.856453 12.078392 3.642810 -7.515058 -7.086371 nan nan nan -8.841918 1.991057 0.156696 9.242771 -6.371115 14.434805 1.644649 0.093686 -7.584584 4.133666 -19.899349 16.433963 7.274643 -22.039958 14.425589 -13.545286 -4.754720 5.529024 -64.080128 -44.541639 34.926358 172.555035 -69.881589 -144.107601 4.030678 -19.863316 -10.892878 18.521485 -1.953942 -2.441059 50.559320 8.565545 4.344817 -84.304538 54.952266 -66.723669 -10.694046 6.217582 -22.701367 
-14.485080 -23.224033 91.573883 -116.002998 2.565269 87.437112 13.533221 4.906844 -2.200670 -5.213288 -2.073054 17.938944 1.925753 11.334331 -23.442282 nan nan nan -11.873668 -10.013537 -9.519459 2.909423 -9.759997 12.192408 3.031774 -6.847612 -7.307555 nan nan nan -9.208750 2.179457 -0.019447 9.221473 -6.582381 15.299970 1.773750 0.657199 -8.303373 4.446201 -19.774855 16.454182 7.629467 -22.517847 14.119374 -13.105270 -5.022653 6.476255 -65.397615 -45.063454 34.649545 169.074197 -68.674158 -140.662943 -4.394430 -20.061780 -5.368226 19.400956 -2.443425 -1.810751 49.461341 8.619248 2.273948 -83.664597 53.554504 -60.324572 -0.264118 7.331243 -9.380317 
-14.487673 -23.205683 91.569290 -116.012145 2.553225 87.465488 13.539402 4.884168 -2.231228 -5.294714 -2.083407 17.998805 2.021665 11.447672 -23.466604 nan nan nan -11.849279 -9.958199 -9.534527 2.921929 -9.513726 12.327833 3.148340 -6.924524 -7.093830 nan nan nan -9.246777 2.308550 -0.149491 9.202591 -6.605274 15.377032 1.722637 0.700957 -8.197133 4.495980 -19.824829 16.284295 7.794756 -22.517268 14.156385 -12.885909 -5.117626 6.595939 -65.821234 -45.299302 34.820985 168.459581 -68.632351 -140.578896 -4.994973 -19.816328 -6.209832 19.513447 -2.532900 -1.788189 49.523443 8.692189 2.111978 -83.960302 53.529403 -60.705942 0.304134 7.178023 -8.925302 
